<svg xmlns="http://www.w3.org/2000/svg" xmlns:xlink="http://www.w3.org/1999/xlink" viewBox="0 0 1600 250"><defs><style>.cls-1,.cls-5{fill:none}.cls-30,.cls-36{opacity:.5}.cls-30,.cls-32,.cls-33,.cls-36,.cls-5{isolation:isolate}.cls-5{stroke:#0047c6;stroke-width:2px;opacity:.75}.cls-32{opacity:.7}.cls-30,.cls-31,.cls-32,.cls-33{fill:#0092ff}.cls-33{opacity:.4}.cls-35,.cls-36{fill:#00bdff}.cls-44{clip-path:url(#clip-path-4)}.cls-48{clip-path:url(#clip-path-7)}.cls-52{clip-path:url(#clip-path-10)}.cls-56{fill:#0082ed}</style><clipPath id="clip-path"><path d="M0 0h1600v250H0z" class="cls-1"/></clipPath><clipPath id="clip-path-2"><path d="M-42.65-8.6h1685.3v267.2H-42.65z" class="cls-1"/></clipPath><linearGradient id="linear-gradient" x1="-11465.49" x2="-11329.67" y1="-2898.01" y2="-3009.49" gradientTransform="matrix(-1.12 .4 -.38 -1.08 -13650.93 1629.84)" gradientUnits="userSpaceOnUse"><stop offset="0" stop-color="#0940d8"/><stop offset="1" stop-color="#0a19a3" stop-opacity=".5"/></linearGradient><linearGradient id="linear-gradient-2" x1="761.48" x2="433.63" y1="169.11" y2="-117.96" gradientTransform="matrix(1 0 0 -1 0 252)" gradientUnits="userSpaceOnUse"><stop offset="0" stop-color="#00bdff"/><stop offset="1" stop-color="#0940d8" stop-opacity="0"/></linearGradient><linearGradient id="linear-gradient-3" x1="1692.95" x2="1333.72" y1="188.94" y2="-109.12" xlink:href="#linear-gradient-2"/><linearGradient id="linear-gradient-4" x1="668.69" x2="668.69" y1="436.07" y2="-444.41" xlink:href="#linear-gradient-2"/><linearGradient id="linear-gradient-5" x1="898.31" x2="898.72" y1="-1478.21" y2="-1477.6" gradientTransform="matrix(628.16 0 0 1211 -562961.1 1789904.38)" xlink:href="#linear-gradient-2"/><linearGradient id="linear-gradient-6" x1="897.26" x2="897.67" y1="-1478.21" y2="-1477.6" gradientTransform="matrix(628.16 0 0 1211 -562961.1 1789904.38)" xlink:href="#linear-gradient-2"/><linearGradient id="linear-gradient-7" x1="897.72" x2="898.12" y1="-1478.21" y2="-1477.6" gradientTransform="matrix(628.16 0 0 1211 -562961.1 1789904.38)" xlink:href="#linear-gradient-2"/><linearGradient id="linear-gradient-8" x1="897.02" x2="897.43" y1="-1478.21" y2="-1477.6" gradientTransform="matrix(628.16 0 0 1211 -562961.1 1789904.38)" xlink:href="#linear-gradient-2"/><linearGradient id="linear-gradient-9" x1="898.52" x2="898.93" y1="-1478.37" y2="-1477.76" gradientTransform="matrix(628.16 0 0 1211 -562961.1 1789904.38)" gradientUnits="userSpaceOnUse"><stop offset=".26" stop-color="#00bdff"/><stop offset="1" stop-color="#0940d8" stop-opacity="0"/></linearGradient><radialGradient id="radial-gradient" cx="-1963.39" cy="-19.9" r="186.13" gradientTransform="matrix(3.98 0 0 -1.58 8474.71 -164.48)" gradientUnits="userSpaceOnUse"><stop offset="0" stop-color="#5cfff7"/><stop offset=".03" stop-color="#5cfef8" stop-opacity=".93"/><stop offset=".14" stop-color="#5bfaf9" stop-opacity=".71"/><stop offset=".26" stop-color="#5bf6fb" stop-opacity=".52"/><stop offset=".37" stop-color="#5bf3fc" stop-opacity=".36"/><stop offset=".49" stop-color="#5af0fd" stop-opacity=".23"/><stop offset=".61" stop-color="#5aeefe" stop-opacity=".13"/><stop offset=".73" stop-color="#5aedff" stop-opacity=".06"/><stop offset=".86" stop-color="#5aecff" stop-opacity=".01"/><stop offset="1" stop-color="#5aecff" stop-opacity="0"/></radialGradient><radialGradient id="radial-gradient-2" cx="-3733.09" cy="23850.25" r="186.13" gradientTransform="matrix(0 3.98 .23 0 -4869.78 14726.87)" xlink:href="#radial-gradient"/><radialGradient id="radial-gradient-3" cx="-3699.97" cy="5134.69" r="87.68" gradientTransform="matrix(0 3.98 .89 0 -3653.64 14596.03)" xlink:href="#radial-gradient"/><radialGradient id="radial-gradient-4" cx="-3996.57" cy="18924.04" r="186.13" gradientTransform="matrix(0 3.12 .28 0 -4827.25 12401.79)" xlink:href="#radial-gradient"/><radialGradient id="radial-gradient-5" cx="-3665.89" cy="19556.46" r="186.13" gradientTransform="matrix(0 3.98 .28 0 -4294.9 14466.31)" xlink:href="#radial-gradient"/><radialGradient id="radial-gradient-6" cx="-3732.2" cy="3955" r="186.13" gradientTransform="matrix(0 3.98 .6 0 -2291.56 14950.53)" gradientUnits="userSpaceOnUse"><stop offset="0" stop-color="#0940d8"/><stop offset=".08" stop-color="#093acf" stop-opacity=".84"/><stop offset=".2" stop-color="#0931c4" stop-opacity=".62"/><stop offset=".32" stop-color="#0a2aba" stop-opacity=".43"/><stop offset=".45" stop-color="#0a24b1" stop-opacity=".27"/><stop offset=".58" stop-color="#0a1fab" stop-opacity=".15"/><stop offset=".71" stop-color="#0a1ca7" stop-opacity=".07"/><stop offset=".85" stop-color="#0a1aa4" stop-opacity=".02"/><stop offset="1" stop-color="#0a19a3" stop-opacity="0"/></radialGradient><linearGradient id="linear-gradient-10" x1="1242.09" x2="1489.78" y1="-22.41" y2="-225.7" gradientTransform="matrix(1 0 0 -1 0 252)" xlink:href="#linear-gradient"/><linearGradient id="linear-gradient-11" x1="676.65" x2="806.93" y1="-121.23" y2="-360.33" gradientTransform="matrix(1 0 0 -1 0 252)" gradientUnits="userSpaceOnUse"><stop offset="0" stop-color="#08dcce"/><stop offset="1" stop-color="#001d99" stop-opacity="0"/></linearGradient><linearGradient id="linear-gradient-12" x1="1517.23" x2="1517.23" y1="145" y2="52.72" gradientTransform="matrix(1 0 0 -1 0 252)" gradientUnits="userSpaceOnUse"><stop offset="0" stop-color="#0092ff" stop-opacity=".5"/><stop offset="1" stop-color="#05f" stop-opacity="0"/></linearGradient><linearGradient id="linear-gradient-13" x1="1517.71" x2="1517.71" y1="122.59" y2="76.94" gradientTransform="matrix(1 0 0 -1 0 252)" gradientUnits="userSpaceOnUse"><stop offset="0" stop-color="#0092ff" stop-opacity=".5"/><stop offset="1" stop-color="#0092ff" stop-opacity="0"/></linearGradient><linearGradient id="linear-gradient-14" x1="1513.23" x2="1576.23" y1="182.52" y2="182.52" gradientTransform="matrix(1 0 0 -1 0 252)" gradientUnits="userSpaceOnUse"><stop offset="0" stop-color="#0092ff"/><stop offset="1" stop-color="#05f" stop-opacity="0"/></linearGradient><radialGradient id="radial-gradient-7" cx="263.91" cy="-1648.2" r="53.18" gradientTransform="matrix(1.39 0 0 -1.36 1151.61 -2182.24)" gradientUnits="userSpaceOnUse"><stop offset=".16" stop-color="#05f"/><stop offset=".17" stop-color="#0055fe" stop-opacity=".98"/><stop offset=".48" stop-color="#044cee" stop-opacity=".57"/><stop offset=".73" stop-color="#0746e2" stop-opacity=".26"/><stop offset=".91" stop-color="#0842db" stop-opacity=".07"/><stop offset="1" stop-color="#0940d8" stop-opacity="0"/></radialGradient><linearGradient id="linear-gradient-15" x1="395.84" x2="395.84" y1="132.92" y2="-71.58" gradientTransform="matrix(1 0 0 -1 0 252)" xlink:href="#linear-gradient"/><radialGradient id="radial-gradient-8" cx="-550.65" cy="-1520.08" r="111.37" gradientTransform="matrix(1.39 0 0 -1.28 1151.61 -1877.5)" xlink:href="#radial-gradient-7"/><linearGradient id="linear-gradient-16" x1="388.9" x2="388.9" y1="-2475.65" y2="-2281.42" gradientTransform="translate(0 2610.07)" gradientUnits="userSpaceOnUse"><stop offset="0" stop-color="#0092ff" stop-opacity=".3"/><stop offset="1" stop-color="#0047c6" stop-opacity="0"/></linearGradient><clipPath id="clip-path-3"><path d="M458.05 359.4l-138.3-.3V244.81l67.61 39.49a2.72 2.72 0 0 0 2.78 0l67.91-38.61z" class="cls-1"/></clipPath><clipPath id="clip-path-4"><path d="M387.73 191.21L321.36 229a2.94 2.94 0 0 0-1.46 2.57l-.08 11.6a3.08 3.08 0 0 0 1.47 2.57l66.07 38.54a3 3 0 0 0 2.94 0l66.28-37.74a2.79 2.79 0 0 0 1.47-2.56V232.4a3.14 3.14 0 0 0-1.47-2.57l-65.92-38.62a3 3 0 0 0-2.93 0z" class="cls-1"/></clipPath><linearGradient id="linear-gradient-17" x1="388.72" x2="320.46" y1="-2352.53" y2="-2352.53" gradientTransform="translate(0 2610.07)" gradientUnits="userSpaceOnUse"><stop offset="0" stop-color="#05f"/><stop offset=".55" stop-color="#0940d8"/><stop offset="1" stop-color="#0a19a3"/></linearGradient><linearGradient id="linear-gradient-18" x1="458.05" x2="389.55" y1="-2352.09" y2="-2352.09" gradientTransform="translate(0 2610.07)" gradientUnits="userSpaceOnUse"><stop offset="0" stop-color="#0940d8"/><stop offset=".55" stop-color="#0a19a3"/><stop offset="1" stop-color="#0a19a3"/></linearGradient><linearGradient id="linear-gradient-19" x1="388.9" x2="388.9" y1="-2341.19" y2="-2419.5" gradientTransform="translate(0 2610.07)" gradientUnits="userSpaceOnUse"><stop offset="0" stop-color="#05f"/><stop offset=".3" stop-color="#0940d8"/><stop offset="1" stop-color="#0a19a3"/></linearGradient><clipPath id="clip-path-7"><path d="M387.73 163.4l-66.37 37.8a2.94 2.94 0 0 0-1.46 2.57l-.08 11.6a3.08 3.08 0 0 0 1.47 2.57l66.07 38.53a3 3 0 0 0 2.94 0l66.28-37.73a2.8 2.8 0 0 0 1.47-2.57v-11.6a3.12 3.12 0 0 0-1.47-2.56l-66-38.61a2.82 2.82 0 0 0-2.85 0z" class="cls-1"/></clipPath><linearGradient id="linear-gradient-20" x1="388.72" x2="320.46" y1="-2380.39" y2="-2380.39" xlink:href="#linear-gradient-17"/><linearGradient id="linear-gradient-21" x1="458.05" x2="389.55" y1="-2379.99" y2="-2379.99" xlink:href="#linear-gradient-18"/><linearGradient id="linear-gradient-22" x1="388.9" x2="388.9" y1="-2368.59" y2="-2444.96" xlink:href="#linear-gradient-19"/><clipPath id="clip-path-10"><path d="M387.73 135.57l-66.37 37.81a2.92 2.92 0 0 0-1.46 2.62l-.08 11.6a3 3 0 0 0 1.47 2.56l66.07 38.55a3 3 0 0 0 2.94 0l66.28-37.74a2.85 2.85 0 0 0 1.47-2.56v-11.66a3.14 3.14 0 0 0-1.47-2.57l-66-38.61a2.57 2.57 0 0 0-2.85 0z" class="cls-1"/></clipPath><linearGradient id="linear-gradient-23" x1="388.72" x2="320.46" y1="-2408.25" y2="-2408.25" xlink:href="#linear-gradient-17"/><linearGradient id="linear-gradient-24" x1="458.05" x2="389.55" y1="-2407.81" y2="-2407.81" xlink:href="#linear-gradient-18"/><linearGradient id="linear-gradient-25" x1="290.32" x2="481.78" y1="77.61" y2="77.61" gradientTransform="matrix(1 0 0 -1 0 252)" gradientUnits="userSpaceOnUse"><stop offset="0" stop-color="#0092ff"/><stop offset="1" stop-color="#0047c6"/></linearGradient><linearGradient id="linear-gradient-26" x1="366.43" x2="405.12" y1="-2587.85" y2="-2502.88" gradientTransform="translate(0 2610.07)" gradientUnits="userSpaceOnUse"><stop offset="0" stop-color="#0092ff"/><stop offset=".23" stop-color="#05f"/><stop offset=".86" stop-color="#0940d8"/><stop offset="1" stop-color="#0a19a3"/></linearGradient><linearGradient id="linear-gradient-27" x1="391.9" x2="372.25" y1="-2494.07" y2="-2591.09" gradientTransform="translate(0 2610.07)" gradientUnits="userSpaceOnUse"><stop offset="0" stop-color="#0940d8"/><stop offset="1" stop-color="#0092ff"/></linearGradient><linearGradient id="linear-gradient-28" x1="10161.76" x2="10161.76" y1="774.97" y2="746.61" gradientTransform="rotate(180 5290.16 444.77)" gradientUnits="userSpaceOnUse"><stop offset="0" stop-color="#0092ff" stop-opacity=".7"/><stop offset="1" stop-color="#0047c6" stop-opacity="0"/></linearGradient><linearGradient id="linear-gradient-29" x1="10212.64" x2="10212.64" y1="764.3" y2="732.39" xlink:href="#linear-gradient-28"/><linearGradient id="linear-gradient-30" x1="10223.5" x2="10223.5" y1="784.41" y2="741.61" xlink:href="#linear-gradient-28"/><radialGradient id="radial-gradient-9" cx="392.73" cy="86.78" r="22.78" gradientTransform="matrix(1 0 0 -1 0 252)" gradientUnits="userSpaceOnUse"><stop offset=".24" stop-color="#00bdff"/><stop offset="1" stop-color="#0092ff" stop-opacity="0"/></radialGradient><linearGradient id="linear-gradient-31" x1="151.12" x2="122.02" y1="226.58" y2="220.28" gradientTransform="matrix(1 0 0 -1 0 252)" gradientUnits="userSpaceOnUse"><stop offset="0" stop-color="#05f" stop-opacity=".5"/><stop offset=".16" stop-color="#0052f2" stop-opacity=".39"/><stop offset=".42" stop-color="#004ddf" stop-opacity=".22"/><stop offset=".66" stop-color="#004ad1" stop-opacity=".1"/><stop offset=".86" stop-color="#0048c9" stop-opacity=".03"/><stop offset="1" stop-color="#0047c6" stop-opacity="0"/></linearGradient><radialGradient id="radial-gradient-10" cx="139.43" cy="224.02" r="20.52" gradientTransform="matrix(1 0 0 -1 0 252)" gradientUnits="userSpaceOnUse"><stop offset="0" stop-color="#05f"/><stop offset="1" stop-color="#0047c6" stop-opacity="0"/></radialGradient><linearGradient id="linear-gradient-32" x1="801.68" x2="801.68" y1="-1895.32" y2="-1640.59" gradientTransform="translate(0 1889.71)" gradientUnits="userSpaceOnUse"><stop offset="0" stop-color="#0047c6"/><stop offset="1" stop-color="#001d99"/></linearGradient></defs><g clip-path="url(#clip-path)"><g id="Layer_1-2" clip-path="url(#clip-path-2)" data-name="Layer 1-2"><path id="path-9" d="M747 376.8c-371.93 9.93-456.32-198.62-702.78-252.47-118.46-25.9-276.28 29-360.93 89.47L-150 693.52z" style="isolation:isolate" fill="url(#linear-gradient)" opacity=".5"/><path id="path-9-2" d="M747 376.8c-371.93 9.93-456.32-198.62-702.78-252.47-118.46-25.9-276.28 29-360.93 89.47" class="cls-5"/><g opacity=".3"><path id="Rectangle-19" style="isolation:isolate" fill="url(#linear-gradient-2)" d="M95.09-201.58h279.68L847.92 875.17H568.24L95.09-201.58z" opacity=".33"/><path id="Rectangle-19-2" style="isolation:isolate" fill="url(#linear-gradient-3)" d="M986.62-201.58h279.68l473.15 1076.75-279.78-.24L986.62-201.58z" opacity=".66"/><path id="Rectangle-19-3" style="isolation:isolate" fill="url(#linear-gradient-4)" d="M238.17-201.58h387.89L1099.2 875.17H711.32L238.17-201.58z" opacity=".11"/><path id="Rectangle-19-4" style="isolation:isolate" fill="url(#linear-gradient-5)" d="M1230.03-201.58h91.66l473.04 1076.51-92.25-1.35-472.45-1075.16z" opacity=".15"/><path id="Rectangle-19-5" style="isolation:isolate" fill="url(#linear-gradient-6)" d="M571.19-201.58h91.66l473.04 1076.51-92.26-1.35L571.19-201.58z" opacity=".15"/><path id="Rectangle-19-6" style="isolation:isolate" fill="url(#linear-gradient-7)" d="M853.55-201.58h91.65l473.05 1076.51-92.26-1.35L853.55-201.58z" opacity=".1"/><path id="Rectangle-19-7" style="isolation:isolate" fill="url(#linear-gradient-8)" d="M414.32-201.58h91.67L979.02 874.93l-92.25-1.35L414.32-201.58z" opacity=".1"/><path id="Rectangle-19-8" style="isolation:isolate" fill="url(#linear-gradient-9)" d="M1429.25-201.58h91.66l473.04 1076.51-92.25-1.35-472.45-1075.16z" opacity=".1"/><ellipse cx="667" cy="-131.39" rx="740.1" ry="294.49" style="isolation:isolate" fill="url(#radial-gradient)" opacity=".5"/><ellipse cx="609.73" cy="-118.13" rx="42.76" ry="740.1" transform="rotate(-23.28 609.723 -118.133)" style="isolation:isolate" fill="url(#radial-gradient-2)" opacity=".3"/><ellipse cx="940.97" cy="-117.29" rx="78.48" ry="348.66" transform="rotate(-23.28 940.983 -117.299)" style="isolation:isolate" fill="url(#radial-gradient-3)" opacity=".2"/><ellipse cx="440.71" cy="-62.41" rx="51.81" ry="580.46" transform="rotate(-23.28 440.716 -62.417)" style="isolation:isolate" fill="url(#radial-gradient-4)" opacity=".3"/><ellipse cx="1270.36" cy="-111.52" rx="52.98" ry="740.1" transform="rotate(-23.28 1270.363 -111.513)" style="isolation:isolate" fill="url(#radial-gradient-5)" opacity=".33"/><ellipse cx="90.61" cy="109.04" rx="112.12" ry="740.1" transform="rotate(-23.28 90.612 109.045)" style="isolation:isolate" fill="url(#radial-gradient-6)" opacity=".5"/></g><path id="path-9-3" d="M616.29 763.12c544.27-182.06 559.8-539.31 889.51-750.58 158.45-101.53 415.36-102.8 569.05-57l4 807.32z" style="isolation:isolate" fill="url(#linear-gradient-10)" opacity=".5"/><path id="path-13" fill="url(#linear-gradient-11)" d="M-21.74 748.77c734.8 0 1040.39-505.76 1527.25-593 245.46-41.94 419.74 47.4 573.07 68.73v538.24H-594.1V627.42c115.41 50.38 304.43 121.35 572.36 121.35z"/><path id="path-9-4" d="M616.29 763.12c544.27-182.06 559.8-539.31 889.51-750.58 158.45-101.53 415.36-102.8 569.05-57" class="cls-5"/><path id="path-13-2" fill="none" stroke="#0047c6" stroke-width="2" d="M560.31 629c361.77-155.27 610.77-413.07 945.49-473.06 245.46-41.93 419.73 47.41 573.07 68.73"/><circle cx="1517.23" cy="153.56" r="45.66" style="isolation:isolate" fill="url(#linear-gradient-12)" opacity=".62"/><circle cx="1517.71" cy="153.56" r="22.43" style="isolation:isolate" fill="url(#linear-gradient-13)" opacity=".62"/><path fill="none" stroke="#0092ff" stroke-linecap="round" stroke-miterlimit="10" stroke-width="2" d="M1517.86 147.04V84.52"/><rect width="64.24" height="19.08" x="1517.07" y="59.94" rx=".95" style="isolation:isolate" fill="url(#linear-gradient-14)" opacity=".7"/><path d="M2025 53.16c-223.57-64.8-389.66-34.68-507 100.16" style="isolation:isolate" fill="none" stroke="#00bdff" stroke-dasharray="0 9" stroke-linecap="round" stroke-miterlimit="10" stroke-width="3" opacity=".2"/><ellipse cx="1519.53" cy="55.96" rx="74" ry="72.25" style="isolation:isolate" fill="url(#radial-gradient-7)" opacity=".32"/><path d="M1540.76 64.52h-18.26v3.19h18.26zm16 0v3.19h12.94v-3.19zm-3.16 0h-9.54v3.19h9.54zm-31.1 9.64h12.72V71h-12.72zm15.76 0h8V71h-8zm11.16 0h12.41V71h-12.41z" class="cls-30"/><circle cx="1517.86" cy="153.82" r="3.01" class="cls-31"/><circle cx="1545.57" cy="150.33" r="1.94" class="cls-32"/><circle cx="1572.73" cy="147.53" r="1.94" class="cls-33"/><circle cx="1463.7" cy="164.72" r="1.94" class="cls-33"/><circle cx="1490.85" cy="158.92" r="1.94" class="cls-32"/><g opacity=".66"><circle cx="1515.97" cy="24.72" r="1.23" class="cls-35"/><circle cx="1498.92" cy="75.07" r="1.23" class="cls-35"/><circle cx="1528.65" cy="37.5" r="1.23" class="cls-35"/><circle cx="1507.34" cy="53.09" r="1.23" class="cls-36"/><circle cx="1527.81" cy="100.24" r="1.23" class="cls-36"/><circle cx="1523.55" cy="45.37" r="1.23" style="isolation:isolate" fill="#00bdff" opacity=".33"/></g><path d="M-217.33 252.36c118.36-74.46 198.6-130 398.1-128.24C381.14 125.89 588.66 276.4 1009 293.33c-704.43 84-1226.33-40.97-1226.33-40.97z" style="isolation:isolate" fill="url(#linear-gradient-15)" opacity=".5"/><path fill="none" stroke="#005de5" stroke-width="2" d="M-217.33 252.36c118.36-74.46 198.6-130 398.1-128.24C381.14 125.89 588.66 276.4 1009 293.33c-704.43 84-1226.33-40.97-1226.33-40.97z"/><ellipse cx="386.2" cy="65.79" rx="154.9" ry="142.38" style="isolation:isolate" fill="url(#radial-gradient-8)" opacity=".32"/><path fill="url(#linear-gradient-16)" d="M458.05 330.32h-138.3V175.21a1.7 1.7 0 0 1 .81-1.47L388 135.13a1.73 1.73 0 0 1 1.68 0l67.47 39.14a1.71 1.71 0 0 1 .81 1.47z"/><path fill="url(#linear-gradient-17)" d="M388.83 285.18l-69.08-40.3V229.9l69.08 40.23v15.05z"/><path fill="url(#linear-gradient-18)" d="M388.83 285.18v-15.05l69.22-39.34v14.97l-69.22 39.42z"/><path fill="url(#linear-gradient-19)" d="M388.83 270.13l-69.08-40.23 69.44-39.49 68.86 40.3-69.22 39.42z"/><path fill="url(#linear-gradient-20)" d="M388.83 257.28l-69.08-40.22v-14.98l69.08 40.23v14.97z"/><path fill="url(#linear-gradient-21)" d="M388.83 257.28v-14.97l69.22-39.43v14.98l-69.22 39.42z"/><path fill="url(#linear-gradient-22)" d="M388.83 242.31l-69.08-40.3 69.44-39.5 68.86 40.37-69.22 39.43z"/><path fill="url(#linear-gradient-23)" d="M388.83 229.46l-69.08-40.3v-14.98l69.08 35.17v20.11z"/><path fill="url(#linear-gradient-24)" d="M388.83 229.46v-18.94l69.22-35.46v14.98l-69.22 39.42z"/><path fill="url(#linear-gradient-25)" d="M387.47 213.69l-67.61-39.5 69.37-39.49 68.93 40.38-67.9 38.61a2.69 2.69 0 0 1-2.79 0z"/><path d="M428.25 200.24L397.2 218.6v-1.32l31.05-18.36v1.32zM428.25 228.1l-31.05 18.36v-1.33l31.05-18.35v1.32zM350.06 200.24l31.05 18.36v-1.32l-31.05-18.36v1.32zM350.06 228.27l31.05 18.35v-1.33l-31.05-18.34v1.32z" class="cls-56"/><path fill="none" stroke="#0092ff" stroke-dasharray="0 8.33" stroke-linecap="round" stroke-miterlimit="10" stroke-width="2.78" d="M388.9 124.79v40.71"/><path fill="url(#linear-gradient-26)" d="M390.68 11.59a3.83 3.83 0 0 0-4.72-.71l-10 6.43c-1.42.83-24.3 27.35-24.3 47 0 18 10.44 38.67 25.83 47.88 9 5.36 17.87 6.36 25 2.76 2.86-1.24 11.32-6.42 12.79-7.37 6.72-4.58 11.14-13.26 11.31-25.77.53-30.01-27.83-61.81-35.91-70.22z"/><path fill="url(#linear-gradient-27)" d="M351.35 64.54c0-18.88 15.39-37.74 22.76-45.53.65-.65 1.59-1.52 1.77-1.65a3.62 3.62 0 0 1 4.83.65c8.91 9.44 35.91 40.57 35.44 69.94-.41 26.41-19.87 36.21-38.91 24.76-15.36-9.19-25.89-30.07-25.89-48.17z"/><path d="M376.11 71.55c0-5 4.49-10 6-11.45a.59.59 0 0 1 .83-.13.69.69 0 0 1 .11.13c1.91 2 9 9.78 8.79 17.18-.12 6.42-4.83 8.78-9.44 6-3.75-2.28-6.29-7.36-6.29-11.73z" style="isolation:isolate" fill="#15d3ff" opacity=".5"/><path fill="none" stroke="url(#linear-gradient-28)" stroke-linecap="round" stroke-miterlimit="10" stroke-width="2.5" d="M418.56 141.69v-25.91"/><path fill="none" stroke="url(#linear-gradient-29)" stroke-linecap="round" stroke-miterlimit="10" stroke-width="2.5" d="M367.68 155.86v-29.37"/><path fill="none" stroke="url(#linear-gradient-30)" stroke-linecap="round" stroke-miterlimit="10" stroke-width="2.5" d="M356.82 146.68v-40.3"/><path d="M381.63 166.71C286 42.94 99.57-18-211.72 52.42" style="isolation:isolate" fill="none" stroke="#0092ff" stroke-dasharray="0 8.33" stroke-linecap="round" stroke-miterlimit="10" stroke-width="2.78" opacity=".2"/><path fill="url(#radial-gradient-9)" d="M388.58 184.91a11 11 0 1 1 11.05-11 11 11 0 0 1-11.05 11zm0-20a8.95 8.95 0 1 0 8.95 9 9 9 0 0 0-8.95-8.99z"/><circle cx="388.58" cy="173.87" r="3.01" fill="#08dcce"/><circle cx="129.85" cy="30.03" r="21.75" fill="url(#linear-gradient-31)"/><path fill="url(#radial-gradient-10)" d="M129.85 41.08a11.05 11.05 0 1 1 11-11.07 11.05 11.05 0 0 1-11 11.07zm0-20a9 9 0 1 0 9 9 9 9 0 0 0-9-9z"/><circle cx="129.85" cy="30.03" r="3.01" class="cls-31"/><circle cx="105.94" cy="26.91" r="1.88" style="isolation:isolate" fill="#0092ff" opacity=".75"/><circle cx="82.22" cy="24.62" r="1.88" class="cls-30"/><circle cx="58.36" cy="23.26" r="1.88" style="isolation:isolate" fill="#0092ff" opacity=".25"/><path style="isolation:isolate" fill="url(#linear-gradient-32)" d="M-47-15.64h1697.37v278.53H-47z" opacity=".4"/></g></g></svg>
