<svg xmlns="http://www.w3.org/2000/svg" xmlns:xlink="http://www.w3.org/1999/xlink" viewBox="0 0 1758 978.3"><style>.st19{fill:none}.st24,.st34{fill:none;stroke-width:2}.st24{opacity:.66;enable-background:new;stroke:#005de5}.st34{stroke:#0092ff;stroke-linecap:round;stroke-miterlimit:10}.st36{fill:#0092ff}.st38{fill:none;stroke:#0047c6;stroke-width:3;stroke-linecap:round;stroke-miterlimit:10;stroke-dasharray:0,9}.st41{fill:#08dcce}.st42{fill:none;stroke:#05f;stroke-width:2;stroke-linecap:round;stroke-miterlimit:10}.st47{opacity:.5}.st48,.st57,.st58{fill:none;stroke:#0092ff;stroke-width:3;stroke-linecap:round;stroke-miterlimit:10}.st57,.st58{opacity:.5;stroke:#0047c6;stroke-dasharray:0,9;enable-background:new}.st58{opacity:.2;stroke:#00bdff}.st68,.st69,.st71{opacity:.7;fill:#0092ff;enable-background:new}.st69,.st71{opacity:.4}.st71{opacity:.6}.st73,.st74,.st75{fill:#00bdff}.st74,.st75{opacity:.5;enable-background:new}.st75{opacity:.33}</style><defs><path id="SVGID_1_" d="M-.1-.5h1758.9v979.4H-.1z"/></defs><clipPath id="SVGID_2_"><use xlink:href="#SVGID_1_" overflow="visible"/></clipPath><g id="Layer_2_1_" clip-path="url(#SVGID_2_)"><g id="v5"><linearGradient id="SVGID_3_" gradientUnits="userSpaceOnUse" x1="868.7" y1="345.188" x2="868.7" y2="-590.783" gradientTransform="matrix(1 0 0 -1 0 381.475)"><stop offset="0" stop-color="#0047c6"/><stop offset="1" stop-color="#001d99"/></linearGradient><path fill="url(#SVGID_3_)" d="M-55.8-.5h1849v1023.4h-1849z"/><radialGradient id="SVGID_4_" cx="-2.14" cy="-594.982" r="614.39" gradientTransform="matrix(1 0 0 -1 0 381.475)" gradientUnits="userSpaceOnUse"><stop offset="0" stop-color="#320d99"/><stop offset="1" stop-color="#320d99" stop-opacity="0"/></radialGradient><path d="M1.7 353.6H-.1v624.9h677v-1.3c-.1-344.5-302.4-623.6-675.2-623.6z" opacity=".7" fill="url(#SVGID_4_)"/><radialGradient id="SVGID_5_" cx="2162.86" cy="-447.982" r="614.39" gradientTransform="matrix(0 -1 -1 0 1308.807 3143.357)" gradientUnits="userSpaceOnUse"><stop offset="0" stop-color="#320d99"/><stop offset="1" stop-color="#320d99" stop-opacity="0"/></radialGradient><path d="M1133.9 976.7v1.8h624.9v-677h-1.3c-344.4 0-623.6 302.3-623.6 675.2z" opacity=".7" fill="url(#SVGID_5_)"/><g opacity=".3"><linearGradient id="Rectangle-19_1_" gradientUnits="userSpaceOnUse" x1="683.021" y1="143.755" x2="339.551" y2="-156.985" gradientTransform="matrix(1 0 0 -1 0 381.475)"><stop offset="0" stop-color="#00bdff"/><stop offset="1" stop-color="#0940d8" stop-opacity="0"/></linearGradient><path id="Rectangle-19" opacity=".33" fill="url(#Rectangle-19_1_)" d="M-15.1-60.3h293l495.7 1128h-293z"/><linearGradient id="Rectangle-19-2_1_" gradientUnits="userSpaceOnUse" x1="1658.855" y1="164.532" x2="1282.525" y2="-147.718" gradientTransform="matrix(1 0 0 -1 0 381.475)"><stop offset="0" stop-color="#00bdff"/><stop offset="1" stop-color="#0940d8" stop-opacity="0"/></linearGradient><path id="Rectangle-19-2" opacity=".66" fill="url(#Rectangle-19-2_1_)" d="M918.9-60.3h293l495.7 1128-293.2-.2z"/><linearGradient id="Rectangle-19-3_1_" gradientUnits="userSpaceOnUse" x1="585.8" y1="423.448" x2="585.8" y2="-498.972" gradientTransform="matrix(1 0 0 -1 0 381.475)"><stop offset="0" stop-color="#00bdff"/><stop offset="1" stop-color="#0940d8" stop-opacity="0"/></linearGradient><path id="Rectangle-19-3" opacity=".11" fill="url(#Rectangle-19-3_1_)" d="M134.8-60.3h406.3l495.7 1128H630.5z"/><linearGradient id="Rectangle-19-4_1_" gradientUnits="userSpaceOnUse" x1="6426.583" y1="4733.042" x2="6427.003" y2="4733.683" gradientTransform="matrix(628.16 0 0 1211 -4035653 -5731799)"><stop offset="0" stop-color="#00bdff"/><stop offset="1" stop-color="#0940d8" stop-opacity="0"/></linearGradient><path id="Rectangle-19-4" opacity=".15" fill="url(#Rectangle-19-4_1_)" d="M1173.9-60.3h96l495.6 1127.8-96.7-1.4z"/><linearGradient id="Rectangle-19-5_1_" gradientUnits="userSpaceOnUse" x1="6425.479" y1="4733.045" x2="6425.909" y2="4733.685" gradientTransform="matrix(628.16 0 0 1211 -4035653 -5731799)"><stop offset="0" stop-color="#00bdff"/><stop offset="1" stop-color="#0940d8" stop-opacity="0"/></linearGradient><path id="Rectangle-19-5" opacity=".15" fill="url(#Rectangle-19-5_1_)" d="M483.6-60.3h96.1l495.5 1127.8-96.6-1.4z"/><linearGradient id="Rectangle-19-6_1_" gradientUnits="userSpaceOnUse" x1="6425.95" y1="4733.044" x2="6426.379" y2="4733.685" gradientTransform="matrix(628.16 0 0 1211 -4035653 -5731799)"><stop offset="0" stop-color="#00bdff"/><stop offset="1" stop-color="#0940d8" stop-opacity="0"/></linearGradient><path id="Rectangle-19-6" opacity=".1" fill="url(#Rectangle-19-6_1_)" d="M779.5-60.3h96l495.6 1127.8-96.7-1.4z"/><linearGradient id="Rectangle-19-7_1_" gradientUnits="userSpaceOnUse" x1="6425.223" y1="4733.042" x2="6425.643" y2="4733.683" gradientTransform="matrix(628.16 0 0 1211 -4035653 -5731799)"><stop offset="0" stop-color="#00bdff"/><stop offset="1" stop-color="#0940d8" stop-opacity="0"/></linearGradient><path id="Rectangle-19-7" opacity=".1" fill="url(#Rectangle-19-7_1_)" d="M319.3-60.3h96l495.6 1127.8-96.6-1.4z"/><linearGradient id="Rectangle-19-8_1_" gradientUnits="userSpaceOnUse" x1="6426.793" y1="4732.872" x2="6427.224" y2="4733.512" gradientTransform="matrix(628.16 0 0 1211 -4035653 -5731799)"><stop offset=".26" stop-color="#00bdff"/><stop offset="1" stop-color="#0940d8" stop-opacity="0"/></linearGradient><path id="Rectangle-19-8" opacity=".1" fill="url(#Rectangle-19-8_1_)" d="M1382.6-60.3h96l495.6 1127.8-96.7-1.4z"/><radialGradient id="SVGID_6_" cx="2160.2" cy="2253.795" r="194.868" gradientTransform="matrix(3.98 0 0 -1.58 -8004.782 3577.113)" gradientUnits="userSpaceOnUse"><stop offset="0" stop-color="#5cfff7"/><stop offset=".03" stop-color="#5cfef8" stop-opacity=".93"/><stop offset=".14" stop-color="#5bfaf9" stop-opacity=".71"/><stop offset=".26" stop-color="#5bf6fb" stop-opacity=".52"/><stop offset=".37" stop-color="#5bf3fc" stop-opacity=".36"/><stop offset=".49" stop-color="#5af0fd" stop-opacity=".23"/><stop offset=".61" stop-color="#5aeefe" stop-opacity=".13"/><stop offset=".73" stop-color="#5aedff" stop-opacity=".06"/><stop offset=".86" stop-color="#5aecff" stop-opacity=".01"/><stop offset="1" stop-color="#5aecff" stop-opacity="0"/></radialGradient><ellipse cx="584" cy="13.2" rx="775.4" ry="308.5" opacity=".5" fill="url(#SVGID_6_)"/><radialGradient id="SVGID_7_" cx="2682.435" cy="-3126.098" r="194.911" gradientTransform="matrix(1.573 3.656 .2113 -.0909 -3031.188 -10053.746)" gradientUnits="userSpaceOnUse"><stop offset="0" stop-color="#5cfff7"/><stop offset=".03" stop-color="#5cfef8" stop-opacity=".93"/><stop offset=".14" stop-color="#5bfaf9" stop-opacity=".71"/><stop offset=".26" stop-color="#5bf6fb" stop-opacity=".52"/><stop offset=".37" stop-color="#5bf3fc" stop-opacity=".36"/><stop offset=".49" stop-color="#5af0fd" stop-opacity=".23"/><stop offset=".61" stop-color="#5aeefe" stop-opacity=".13"/><stop offset=".73" stop-color="#5aedff" stop-opacity=".06"/><stop offset=".86" stop-color="#5aecff" stop-opacity=".01"/><stop offset="1" stop-color="#5aecff" stop-opacity="0"/></radialGradient><path d="M217.6-685.1C240.3-694.9 396-383.9 565.2 9.4s288 720.2 265.3 729.9c-22.7 9.8-178.4-301.2-347.6-694.5s-288-720.1-265.3-729.9z" opacity=".3" fill="url(#SVGID_7_)"/><radialGradient id="SVGID_8_" cx="2717.133" cy="2836.856" r="91.86" gradientTransform="matrix(1.573 3.656 .8175 -.3518 -5729.753 -8892.7)" gradientUnits="userSpaceOnUse"><stop offset="0" stop-color="#5cfff7"/><stop offset=".03" stop-color="#5cfef8" stop-opacity=".93"/><stop offset=".14" stop-color="#5bfaf9" stop-opacity=".71"/><stop offset=".26" stop-color="#5bf6fb" stop-opacity=".52"/><stop offset=".37" stop-color="#5bf3fc" stop-opacity=".36"/><stop offset=".49" stop-color="#5af0fd" stop-opacity=".23"/><stop offset=".61" stop-color="#5aeefe" stop-opacity=".13"/><stop offset=".73" stop-color="#5aedff" stop-opacity=".06"/><stop offset=".86" stop-color="#5aecff" stop-opacity=".01"/><stop offset="1" stop-color="#5aecff" stop-opacity="0"/></radialGradient><path d="M726.7-307.5c41.7-17.9 140.2 117.7 219.9 303s110.5 350.1 68.8 368-140.2-117.7-219.9-303-110.5-350.1-68.8-368z" opacity=".2" fill="url(#SVGID_8_)"/><radialGradient id="SVGID_9_" cx="2660.446" cy="-2282.227" r="195" gradientTransform="matrix(1.2331 2.866 .2572 -.1107 -2347.562 -7786.922)" gradientUnits="userSpaceOnUse"><stop offset="0" stop-color="#5cfff7"/><stop offset=".03" stop-color="#5cfef8" stop-opacity=".93"/><stop offset=".14" stop-color="#5bfaf9" stop-opacity=".71"/><stop offset=".26" stop-color="#5bf6fb" stop-opacity=".52"/><stop offset=".37" stop-color="#5bf3fc" stop-opacity=".36"/><stop offset=".49" stop-color="#5af0fd" stop-opacity=".23"/><stop offset=".61" stop-color="#5aeefe" stop-opacity=".13"/><stop offset=".73" stop-color="#5aedff" stop-opacity=".06"/><stop offset=".86" stop-color="#5aecff" stop-opacity=".01"/><stop offset="1" stop-color="#5aecff" stop-opacity="0"/></radialGradient><path d="M106.6-473.1C134.1-484.9 264.1-244.5 396.8 64s218 568.2 190.5 580.1S429.8 415.5 297.1 107s-218-568.2-190.5-580.1z" opacity=".3" fill="url(#SVGID_9_)"/><radialGradient id="SVGID_10_" cx="2752.832" cy="-941.437" r="195" gradientTransform="matrix(1.573 3.656 .2572 -.1107 -2865.98 -10124.836)" gradientUnits="userSpaceOnUse"><stop offset="0" stop-color="#5cfff7"/><stop offset=".03" stop-color="#5cfef8" stop-opacity=".93"/><stop offset=".14" stop-color="#5bfaf9" stop-opacity=".71"/><stop offset=".26" stop-color="#5bf6fb" stop-opacity=".52"/><stop offset=".37" stop-color="#5bf3fc" stop-opacity=".36"/><stop offset=".49" stop-color="#5af0fd" stop-opacity=".23"/><stop offset=".61" stop-color="#5aeefe" stop-opacity=".13"/><stop offset=".73" stop-color="#5aedff" stop-opacity=".06"/><stop offset=".86" stop-color="#5aecff" stop-opacity=".01"/><stop offset="1" stop-color="#5aecff" stop-opacity="0"/></radialGradient><path d="M909.7-678.2c28.2-12.1 188.2 296.9 357.4 690.3s283.6 722.1 255.5 734.2c-28.2 12.1-188.2-296.9-357.4-690.3S881.5-666.1 909.7-678.2z" opacity=".33" fill="url(#SVGID_10_)"/><radialGradient id="SVGID_11_" cx="2683.367" cy="-2542.159" r="195" gradientTransform="matrix(1.573 3.656 .5512 -.2371 -2829.717 -10140.432)" gradientUnits="userSpaceOnUse"><stop offset="0" stop-color="#0940d8"/><stop offset=".08" stop-color="#093acf" stop-opacity=".84"/><stop offset=".2" stop-color="#0931c4" stop-opacity=".62"/><stop offset=".32" stop-color="#0a2aba" stop-opacity=".43"/><stop offset=".45" stop-color="#0a24b1" stop-opacity=".27"/><stop offset=".58" stop-color="#0a1fab" stop-opacity=".15"/><stop offset=".71" stop-color="#0a1ca7" stop-opacity=".07"/><stop offset=".85" stop-color="#0a1aa4" stop-opacity=".02"/><stop offset="1" stop-color="#0a19a3" stop-opacity="0"/></radialGradient><path d="M-326.3-447.1C-266.7-472.7-81.2-174.6 88 218.7s258.1 733 198.5 758.7-245-272.5-414.2-665.9-258.1-733-198.6-758.6z" opacity=".5" fill="url(#SVGID_11_)"/></g><path class="st19" d="M4.2 35.7h1749.2v938H4.2z"/></g><g id="Layer_12"><radialGradient id="SVGID_12_" cx="1652.5" cy="-148.325" r="89.3" gradientTransform="matrix(1 0 0 -1 0 381.475)" gradientUnits="userSpaceOnUse"><stop offset="0" stop-color="#08dcce"/><stop offset=".11" stop-color="#08dcce" stop-opacity=".98"/><stop offset=".25" stop-color="#08dcce" stop-opacity=".91"/><stop offset=".39" stop-color="#08dcce" stop-opacity=".79"/><stop offset=".55" stop-color="#08dcce" stop-opacity=".64"/><stop offset=".71" stop-color="#08dcce" stop-opacity=".43"/><stop offset=".88" stop-color="#08dcce" stop-opacity=".19"/><stop offset="1" stop-color="#08dcce" stop-opacity="0"/></radialGradient><circle cx="1652.5" cy="529.8" r="89.3" opacity=".2" fill="url(#SVGID_12_)"/></g><g id="V5_details"><radialGradient id="SVGID_13_" cx="290.486" cy="-564.209" r="58.03" gradientTransform="matrix(1.38 0 0 -1.2 -232.46 188.553)" gradientUnits="userSpaceOnUse"><stop offset="0" stop-color="#05f"/><stop offset=".02" stop-color="#05f" stop-opacity=".98"/><stop offset=".39" stop-color="#05f" stop-opacity=".57"/><stop offset=".69" stop-color="#05f" stop-opacity=".26"/><stop offset=".9" stop-color="#05f" stop-opacity=".07"/><stop offset="1" stop-color="#05f" stop-opacity="0"/></radialGradient><ellipse cx="171.6" cy="870.7" rx="80.3" ry="69.8" opacity=".48" fill="url(#SVGID_13_)"/><linearGradient id="path-3_1_" gradientUnits="userSpaceOnUse" x1="840.1" y1="-341.783" x2="840.1" y2="-541.413" gradientTransform="matrix(1 0 0 -1 0 381.475)"><stop offset="0" stop-color="#0940d8"/><stop offset="1" stop-color="#0a19a3" stop-opacity=".5"/></linearGradient><path id="path-3" d="M39.7 918.3c129.1-35.4 232.7-78.5 355.8-99.6 197.7-34.7 409.7 92.9 735.5 90.5 261-1.9 420-58.7 508.7-88.3 170.6-69.4 481.1-236 600.4-346v691.8h-2800v-182c104.7 0 346.5 3 599.6-66.4z" opacity=".5" fill="url(#path-3_1_)"/><linearGradient id="path-9_1_" gradientUnits="userSpaceOnUse" x1="1363.416" y1="-273.422" x2="1622.906" y2="-486.412" gradientTransform="matrix(1 0 0 -1 0 381.475)"><stop offset="0" stop-color="#0940d8"/><stop offset="1" stop-color="#0a19a3" stop-opacity=".5"/></linearGradient><path id="path-9" d="M707.8 1166.9c570.2-190.7 586.5-565 931.9-786.3 166-106.4 435.1-107.7 596.2-59.7l4.2 845.8-1532.3.2z" opacity=".5" fill="url(#path-9_1_)"/><path id="path-3-2" class="st24" d="M-559.9 978.8c104.8 0 360.8 0 552.8-48 175.5-43.9 269.8-89.9 392.9-110.9 208.8-35.7 419.5 91.7 745.3 89.2 261-1.9 420-58.7 508.7-88.3 170.6-69.4 481.1-236 600.4-346"/><linearGradient id="path-13_1_" gradientUnits="userSpaceOnUse" x1="771.103" y1="-376.9" x2="907.593" y2="-627.39" gradientTransform="matrix(1 0 0 -1 0 381.475)"><stop offset="0" stop-color="#08dcce"/><stop offset="1" stop-color="#001d99" stop-opacity="0"/></linearGradient><path id="path-13" d="M39.4 1151.8c769.8 0 1089.9-529.8 1600-621.3 257.1-43.9 439.7 49.7 600.4 72v563.9h-2800v-141.7c120.9 52.8 318.9 127.1 599.6 127.1z" fill="url(#path-13_1_)"/><linearGradient id="path-6_1_" gradientUnits="userSpaceOnUse" x1="838.8" y1="-410.913" x2="838.8" y2="-559.442" gradientTransform="matrix(1 0 0 -1 0 381.475)"><stop offset="0" stop-color="#08dcce"/><stop offset=".24" stop-color="#0940d8"/><stop offset="1" stop-color="#0a19a3" stop-opacity=".5"/></linearGradient><path id="path-6" d="M38.5 958.3c247.2 0 589.4-135 800-149.8 283.9-20 513.1 139.7 1032.2 48.1 162.6-28.7 368.1-142.4 368.1-142.4V1166h-2800v-159.8c0-.1 310.8-47.9 599.7-47.9z" opacity=".5" fill="url(#path-6_1_)"/><path id="path-9-2" d="M707.8 1166.9c570.2-190.7 586.5-565 931.9-786.3 166-106.4 435.1-107.7 596.2-59.7" opacity=".75" fill="none" stroke="#0047c6" stroke-width="2"/><path id="path-13-2" d="M649.2 1026.3c379-162.7 639.9-432.7 990.5-495.6 257.1-43.9 439.7 49.7 600.4 72" fill="none" stroke="#0047c6" stroke-width="2"/><radialGradient id="SVGID_14_" cx="1304.07" cy="-471.09" r="40.85" gradientTransform="matrix(1.39 0 0 -1.12 -1016.057 288.054)" gradientUnits="userSpaceOnUse"><stop offset=".16" stop-color="#05f"/><stop offset=".17" stop-color="#0055fe" stop-opacity=".98"/><stop offset=".48" stop-color="#044cee" stop-opacity=".57"/><stop offset=".73" stop-color="#0746e2" stop-opacity=".26"/><stop offset=".91" stop-color="#0842db" stop-opacity=".07"/><stop offset="1" stop-color="#0940d8" stop-opacity="0"/></radialGradient><ellipse cx="799.1" cy="813.5" rx="56.8" ry="45.7" opacity=".32" fill="url(#SVGID_14_)"/><path id="path-6-2" class="st24" d="M-559.9 898.8S-249.1 959 39.7 959c247.2 0 589.4-135 800-149.8 283.9-20 513.1 139.7 1032.2 48.1 162.6-28.7 368.1-142.4 368.1-142.4"/><g id="path-6-3" opacity=".33"><linearGradient id="SVGID_15_" gradientUnits="userSpaceOnUse" x1="801.3" y1="-445.325" x2="656.99" y2="-445.325" gradientTransform="matrix(1 0 0 -1 0 381.475)"><stop offset="0" stop-color="#0092ff"/><stop offset=".02" stop-color="#0092ff" stop-opacity=".98"/><stop offset=".39" stop-color="#0092ff" stop-opacity=".57"/><stop offset=".69" stop-color="#0092ff" stop-opacity=".26"/><stop offset=".9" stop-color="#0092ff" stop-opacity=".07"/><stop offset="1" stop-color="#0092ff" stop-opacity="0"/></linearGradient><path d="M652.4 843.2l-1.1-4.9c60.9-13.9 108.5-22.8 149.7-27.9l.6 5c-41 5.2-88.4 14-149.2 27.8z" fill="url(#SVGID_15_)"/></g><path class="st19" d="M-560.1 38.8h2800v938h-2800z"/><linearGradient id="SVGID_16_" gradientUnits="userSpaceOnUse" x1="1651.7" y1="-98.013" x2="1651.7" y2="-194.683" gradientTransform="matrix(1 0 0 -1 0 381.475)"><stop offset="0" stop-color="#0092ff" stop-opacity=".5"/><stop offset="1" stop-color="#05f" stop-opacity="0"/></linearGradient><circle cx="1651.7" cy="528.3" r="47.8" opacity=".62" fill="url(#SVGID_16_)"/><linearGradient id="SVGID_17_" gradientUnits="userSpaceOnUse" x1="1652.2" y1="-121.492" x2="1652.2" y2="-169.313" gradientTransform="matrix(1 0 0 -1 0 381.475)"><stop offset="0" stop-color="#0092ff" stop-opacity=".5"/><stop offset="1" stop-color="#0092ff" stop-opacity="0"/></linearGradient><circle cx="1652.2" cy="528.3" r="23.5" opacity=".62" fill="url(#SVGID_17_)"/><path class="st34" d="M1652.3 521.4V339"/><linearGradient id="SVGID_18_" gradientUnits="userSpaceOnUse" x1="1647.489" y1="57.675" x2="1713.499" y2="57.675" gradientTransform="matrix(1 0 0 -1 0 381.475)"><stop offset="0" stop-color="#0092ff"/><stop offset="1" stop-color="#05f" stop-opacity="0"/></linearGradient><path d="M1652.5 313.8h65.3c.6 0 1 .4 1 1v18c0 .6-.4 1-1 1h-65.3c-.6 0-1-.4-1-1v-18c0-.6.5-1 1-1z" opacity=".7" fill="url(#SVGID_18_)"/><circle class="st36" cx="171.6" cy="878.3" r="3.2"/><radialGradient id="SVGID_19_" cx="1397.177" cy="-492.869" r="58.03" gradientTransform="matrix(1.38 0 0 -1.2 -232.46 188.553)" gradientUnits="userSpaceOnUse"><stop offset="0" stop-color="#0092ff"/><stop offset=".02" stop-color="#0091ff" stop-opacity=".98"/><stop offset=".39" stop-color="#0078ff" stop-opacity=".57"/><stop offset=".69" stop-color="#0065ff" stop-opacity=".26"/><stop offset=".9" stop-color="#0059ff" stop-opacity=".07"/><stop offset="1" stop-color="#05f" stop-opacity="0"/></radialGradient><ellipse cx="1703.9" cy="784.9" rx="80.3" ry="69.8" opacity=".4" fill="url(#SVGID_19_)"/><path class="st38" d="M801.2 812.9c27-37.4 72.5-37.3 97.9-5"/><linearGradient id="SVGID_20_" gradientUnits="userSpaceOnUse" x1="287.588" y1="-546.299" x2="257.108" y2="-552.899" gradientTransform="matrix(1 0 0 -1 0 381.475)"><stop offset="0" stop-color="#05f" stop-opacity=".5"/><stop offset=".16" stop-color="#0052f2" stop-opacity=".39"/><stop offset=".42" stop-color="#004ddf" stop-opacity=".22"/><stop offset=".66" stop-color="#004ad1" stop-opacity=".1"/><stop offset=".86" stop-color="#0048c9" stop-opacity=".03"/><stop offset="1" stop-color="#0047c6" stop-opacity="0"/></linearGradient><circle cx="265.3" cy="932.6" r="22.8" fill="url(#SVGID_20_)"/><radialGradient id="SVGID_21_" cx="805.54" cy="-422.413" r="23.86" gradientTransform="matrix(1 0 0 -1 0 381.475)" gradientUnits="userSpaceOnUse"><stop offset=".24" stop-color="#0092ff"/><stop offset="1" stop-color="#05f" stop-opacity=".2"/></radialGradient><path d="M801.2 824.5c-6.4 0-11.6-5.2-11.6-11.6 0-6.4 5.2-11.6 11.6-11.6 6.4 0 11.6 5.2 11.6 11.6 0 6.4-5.2 11.6-11.6 11.6zm0-21c-5.2 0-9.4 4.2-9.4 9.4s4.2 9.4 9.4 9.4 9.4-4.2 9.4-9.4c-.1-5.2-4.3-9.3-9.4-9.4z" fill="url(#SVGID_21_)"/><circle class="st41" cx="801.2" cy="812.9" r="3.2"/><path class="st42" d="M801.2 796.3v-.1"/><path fill="none" stroke="#05f" stroke-width="2" stroke-linecap="round" stroke-miterlimit="10" stroke-dasharray=".13,6.26" d="M801.2 790v-22.5"/><path class="st42" d="M801.2 764.4v-.1"/><linearGradient id="SVGID_22_" gradientUnits="userSpaceOnUse" x1="808.28" y1="-384.725" x2="858.33" y2="-384.725" gradientTransform="matrix(1 0 0 -1 0 381.475)"><stop offset="0" stop-color="#05f" stop-opacity=".8"/><stop offset="1" stop-color="#05f" stop-opacity="0"/></linearGradient><path d="M808.3 762.2h49c.6 0 1 .4 1 1v6c0 .6-.4 1-1 1h-49c-.6 0-1-.4-1-1v-6c0-.6.4-1 1-1z" opacity=".6" fill="url(#SVGID_22_)"/><linearGradient id="SVGID_23_" gradientUnits="userSpaceOnUse" x1="807.76" y1="-397.525" x2="832.23" y2="-397.525" gradientTransform="matrix(1 0 0 -1 0 381.475)"><stop offset="0" stop-color="#05f" stop-opacity=".8"/><stop offset="1" stop-color="#05f" stop-opacity="0"/></linearGradient><path d="M808.3 775.2h22.9c.6 0 1 .4 1 1v5.6c0 .6-.4 1-1 1h-22.9c-.6 0-1-.4-1-1v-5.6c0-.5.4-1 1-1z" opacity=".6" fill="url(#SVGID_23_)"/><circle class="st36" cx="801.3" cy="764.1" r="1.8"/><circle cx="1607.9" cy="885" r="10.5" opacity=".7" fill="none" stroke="#0940d8" stroke-width="2"/><circle class="st36" cx="1607.9" cy="885" r="3.1"/><g class="st47"><path class="st48" d="M1607.8 868.2"/><path fill="none" stroke="#0092ff" stroke-width="3" stroke-linecap="round" stroke-miterlimit="10" stroke-dasharray="0,8.36" d="M1607.8 859.8v-12.5"/><path class="st48" d="M1607.8 843.1"/></g><linearGradient id="SVGID_24_" gradientUnits="userSpaceOnUse" x1="1614.95" y1="-469.825" x2="1664.999" y2="-469.825" gradientTransform="matrix(1 0 0 -1 0 381.475)"><stop offset="0" stop-color="#05f" stop-opacity=".8"/><stop offset="1" stop-color="#05f" stop-opacity="0"/></linearGradient><path d="M1663.9 841h-49c-.6 0-1 .4-1 1v6c0 .6.4 1 1 1h49c.6 0 1-.4 1-1v-6c0-.6-.4-1-1-1zm-26 13h-23c-.6 0-1 .4-1 1v5.6c0 .6.4 1 1 1h23c.6 0 1-.4 1-1V855c-.1-.6-.5-1-1-1z" opacity=".6" fill="url(#SVGID_24_)"/><circle cx="1608" cy="842.6" r="1.8" fill="#05f"/><radialGradient id="SVGID_25_" cx="275.38" cy="-548.933" r="21.5" gradientTransform="matrix(1 0 0 -1 0 381.475)" gradientUnits="userSpaceOnUse"><stop offset="0" stop-color="#05f"/><stop offset="1" stop-color="#0047c6" stop-opacity="0"/></radialGradient><path d="M265.3 944.1c-6.4 0-11.6-5.2-11.6-11.6 0-6.4 5.2-11.6 11.6-11.6s11.6 5.2 11.6 11.6c0 6.5-5.2 11.6-11.6 11.6zm0-21c-5.2 0-9.4 4.2-9.4 9.4s4.2 9.4 9.4 9.4 9.4-4.2 9.4-9.4c0-5.1-4.2-9.3-9.4-9.4z" fill="url(#SVGID_25_)"/><circle cx="250.5" cy="935.8" r="2.2" opacity=".4" fill="#08dcce"/><circle cx="233.5" cy="938.8" r="2.2" opacity=".3" fill="#08dcce"/><circle cx="216.7" cy="941.6" r="2.2" opacity=".2" fill="#08dcce"/><circle cx="200.2" cy="944.4" r="2.2" opacity=".1" fill="#08dcce"/><circle class="st36" cx="382.9" cy="820.1" r="3.2"/><path class="st57" d="M73.3 909.3c-18.5-20.9-91.8-76.6-188.5-22"/><circle class="st36" cx="73.3" cy="909.3" r="3.2"/><path class="st38" d="M899.4 807.3c146-95 327.1-93 448.5 36.6"/><path class="st58" d="M1397.3 838.3c43.8-92.7 82.4-138.7 118.5-161.4 64-40.3 130.9-7.3 168.7 73"/><path class="st57" d="M1402 837.4c93.6-106.9 164.4-71.7 206.8 48.1"/><path class="st58" d="M1984.5 378.7c-164-93.1-302.4 41-332.1 149.3"/><circle class="st36" cx="265.3" cy="932.6" r="3.2"/><linearGradient id="SVGID_26_" gradientUnits="userSpaceOnUse" x1="899.1" y1="-398.482" x2="899.1" y2="-453.902" gradientTransform="matrix(1 0 0 -1 0 381.475)"><stop offset="0" stop-color="#05f" stop-opacity=".5"/><stop offset="1" stop-color="#05f" stop-opacity="0"/></linearGradient><circle cx="899.1" cy="807.9" r="27.4" fill="url(#SVGID_26_)"/><linearGradient id="SVGID_27_" gradientUnits="userSpaceOnUse" x1="899.1" y1="-411.952" x2="899.1" y2="-439.362" gradientTransform="matrix(1 0 0 -1 0 381.475)"><stop offset="0" stop-color="#05f" stop-opacity=".5"/><stop offset="1" stop-color="#05f" stop-opacity="0"/></linearGradient><circle cx="899.1" cy="807.9" r="13.5" fill="url(#SVGID_27_)"/><circle class="st41" cx="899.1" cy="807.9" r="3.2"/><path class="st19" d="M4.2 35.7h1749.2v938H4.2z"/><path class="st38" d="M265.1 923.3c16.3-180.9 85.4-193.4 116.9-104.7"/><path d="M260.1 925.9c-33.8-103.6-67.6-103.6-84.7-52.7" opacity=".6" fill="none" stroke="#0047c6" stroke-width="3" stroke-linecap="round" stroke-miterlimit="10" stroke-dasharray="0,9"/><path class="st57" d="M74.2 901.3c9.5-48 58.3-68.2 93.5-28.1M1725.3 750.7c39.9-56.7 94-113.4 195.8-152.9"/><linearGradient id="SVGID_28_" gradientUnits="userSpaceOnUse" x1="171.8" y1="-494.362" x2="171.8" y2="-444.732" gradientTransform="matrix(1 0 0 -1 0 381.475)"><stop offset="0" stop-color="#00bdff" stop-opacity=".8"/><stop offset=".36" stop-color="#05f"/><stop offset="1" stop-color="#05f" stop-opacity=".5"/></linearGradient><path d="M201.4 826.7h-59.2c-1.1 0-2 .9-2 2v32.5c0 1.1.9 2 2 2h22.1l6.1 6.1c.8.8 2 .8 2.8 0l6.1-6.1h22.1c1.1 0 2-.9 2-2v-32.5c0-1.1-.9-2-2-2z" fill="url(#SVGID_28_)"/><g class="st47"><path class="st36" d="M165.6 846.5h-19.2v3.3h19.2v-3.3zm16.8 0v3.3H196v-3.3h-13.6zm-3.3 0H169v3.3h10.1v-3.3zm-32.7 10.1h13.4v-3.4h-13.4v3.4zm16.6 0h8.4v-3.4H163v3.4zm11.7 0h13.1v-3.4h-13.1v3.4zM153.8 832.5h-7.4v3.4h7.4v-3.4zm24.6 0v3.4h19.5v-3.4h-19.5zm-3.4 0h-17.8v3.4H175v-3.4zm-28.5 10.1h13.4v-3.4h-13.4v3.4zm16.5 0h4.4v-3.4H163v3.4zm7.8 0h20.4v-3.4h-20.4v3.4z"/></g></g><g id="v5_orbs"><radialGradient id="SVGID_29_" cx="1231.88" cy="-354.025" r="55.709" gradientTransform="matrix(1 0 0 -1 0 381.475)" gradientUnits="userSpaceOnUse"><stop offset=".16" stop-color="#05f"/><stop offset=".17" stop-color="#0055fe" stop-opacity=".98"/><stop offset=".48" stop-color="#044cee" stop-opacity=".57"/><stop offset=".73" stop-color="#0746e2" stop-opacity=".26"/><stop offset=".91" stop-color="#0842db" stop-opacity=".07"/><stop offset="1" stop-color="#0940d8" stop-opacity="0"/></radialGradient><ellipse cx="916.1" cy="735.5" rx="77.5" ry="62.3" opacity=".32" fill="url(#SVGID_29_)"/><radialGradient id="SVGID_30_" cx="1918.5" cy="-101.282" r="55.71" gradientTransform="matrix(1.39 0 0 -1.36 -1016.057 173.34)" gradientUnits="userSpaceOnUse"><stop offset=".16" stop-color="#05f"/><stop offset=".17" stop-color="#0055fe" stop-opacity=".98"/><stop offset=".48" stop-color="#044cee" stop-opacity=".57"/><stop offset=".73" stop-color="#0746e2" stop-opacity=".26"/><stop offset=".91" stop-color="#0842db" stop-opacity=".07"/><stop offset="1" stop-color="#0940d8" stop-opacity="0"/></radialGradient><ellipse cx="1654.1" cy="309.6" rx="77.5" ry="75.7" opacity=".32" fill="url(#SVGID_30_)"/><path class="st34" d="M899.1 799.5V726"/><path d="M1676.3 318.6h-19.1v3.3h19.1v-3.3zm16.8 0v3.3h13.6v-3.3h-13.6zm-3.3 0h-10v3.3h10v-3.3zm-32.6 10.1h13.3v-3.3h-13.3v3.3zm16.5 0h8.4v-3.3h-8.4v3.3zm11.7 0h13v-3.3h-13v3.3z" opacity=".5" fill="#0092ff"/><circle class="st36" cx="1652.3" cy="528.5" r="3.1"/><linearGradient id="SVGID_31_" gradientUnits="userSpaceOnUse" x1="906.27" y1="-355.475" x2="957.12" y2="-355.475" gradientTransform="matrix(1 0 0 -1 0 381.475)"><stop offset="0" stop-color="#00bdff" stop-opacity=".8"/><stop offset=".36" stop-color="#05f" stop-opacity=".8"/><stop offset="1" stop-color="#05f" stop-opacity="0"/></linearGradient><path d="M906.1 725.6h56.2c.6 0 1 .4 1 1v20.7c0 .6-.4 1-1 1h-56.2c-.6 0-1-.4-1-1v-20.7c0-.5.5-1 1-1z" fill="url(#SVGID_31_)"/><path d="M921.4 738.1c-.1 2.7-2.4 4.8-5.2 4.7-2.6-.1-4.6-2.2-4.7-4.7 0-2.7 4.9-7.4 4.9-7.4s5 4.7 5 7.4z" opacity=".66" fill="#5cfff7"/><circle class="st68" cx="1681.4" cy="524.9" r="2"/><circle class="st69" cx="1709.8" cy="521.9" r="2"/><circle class="st69" cx="1595.6" cy="540" r="2"/><circle class="st68" cx="1624" cy="533.9" r="2"/><circle class="st36" cx="1704.3" cy="793.1" r="3.1"/><circle class="st36" cx="1379.7" cy="875" r="3.2"/><linearGradient id="SVGID_32_" gradientUnits="userSpaceOnUse" x1="1379.7" y1="-496.663" x2="1379.7" y2="-458.553" gradientTransform="matrix(1 0 0 -1 0 381.475)"><stop offset="0" stop-color="#00bdff" stop-opacity=".8"/><stop offset=".36" stop-color="#05f"/><stop offset="1" stop-color="#05f" stop-opacity=".5"/></linearGradient><path d="M1404.9 841.3h-50.5c-.9 0-1.7.8-1.7 1.7v15.9c0 .9.8 1.7 1.7 1.7h18.9l5.2 5.2c.7.7 1.7.7 2.4 0l5.2-5.2h18.9c.9 0 1.7-.8 1.7-1.7V843c-.1-.9-.8-1.7-1.8-1.7z" fill="url(#SVGID_32_)"/><path class="st71" d="M1374.5 846.3h-16.4v2.9h16.4v-2.9zm14.3 0v2.9h11.6v-2.9h-11.6zm-2.8 0h-8.6v2.9h8.6v-2.9zm-27.9 8.7h11.4v-2.9h-11.4v2.9zm14.1 0h7.2v-2.9h-7.2v2.9zm10 0h11.2v-2.9h-11.2v2.9z"/><linearGradient id="SVGID_33_" gradientUnits="userSpaceOnUse" x1="1704.35" y1="-411.563" x2="1704.35" y2="-368.872" gradientTransform="matrix(1 0 0 -1 0 381.475)"><stop offset="0" stop-color="#00bdff" stop-opacity=".8"/><stop offset=".36" stop-color="#05f"/><stop offset="1" stop-color="#05f" stop-opacity=".5"/></linearGradient><path d="M1733.9 753.9h-59.2c-1.1 0-2 .9-2 2v18.7c0 1.1.9 2 2 2h22.2l6.1 6.1c.8.8 2 .8 2.8 0l6.1-6.1h22.1c1.1 0 2-.9 2-2v-18.7c-.1-1.1-1-2-2.1-2z" fill="url(#SVGID_33_)"/><path class="st71" d="M1698.2 759.8H1679v3.3h19.2v-3.3zm16.8 0v3.3h13.6v-3.3H1715zm-3.3 0h-10.1v3.3h10.1v-3.3zm-32.7 10.1h13.4v-3.4H1679v3.4zm16.6 0h8.4v-3.4h-8.4v3.4zm11.7 0h13.1v-3.4h-13.1v3.4z"/></g><g id="magic"><g class="st47"><circle class="st73" cx="898" cy="688.5" r="1.3"/><circle class="st73" cx="880.1" cy="741.3" r="1.3"/><circle class="st73" cx="911.3" cy="701.9" r="1.3"/><circle class="st74" cx="889" cy="718.2" r="1.3"/><circle class="st74" cx="906.3" cy="664.2" r="1.3"/><circle class="st74" cx="910.4" cy="767.6" r="1.3"/><circle class="st75" cx="905.9" cy="710.2" r="1.3"/></g><g opacity=".66"><circle class="st73" cx="1650.4" cy="276.9" r="1.3"/><circle class="st73" cx="1632.5" cy="329.6" r="1.3"/><circle class="st73" cx="1663.6" cy="290.3" r="1.3"/><circle class="st74" cx="1641.3" cy="306.6" r="1.3"/><circle class="st74" cx="1658.6" cy="252.6" r="1.3"/><circle class="st74" cx="1662.8" cy="356" r="1.3"/><circle class="st75" cx="1658.3" cy="298.5" r="1.3"/></g></g></g><linearGradient id="SVGID_34_" gradientUnits="userSpaceOnUse" x1="868.7" y1="345.188" x2="868.7" y2="-590.783" gradientTransform="matrix(1 0 0 -1 0 381.475)"><stop offset="0" stop-color="#0047c6"/><stop offset="1" stop-color="#001d99"/></linearGradient><path opacity=".4" clip-path="url(#SVGID_2_)" fill="url(#SVGID_34_)" d="M-55.8-.5h1849v1023.4h-1849z"/></svg>
